<?xml version="1.0" standalone="no"?><!DOCTYPE svg PUBLIC "-//W3C//DTD SVG 1.1//EN" "http://www.w3.org/Graphics/SVG/1.1/DTD/svg11.dtd"><svg t="1614182039918" class="icon" viewBox="0 0 1113 1024" version="1.1" xmlns="http://www.w3.org/2000/svg" p-id="6297" xmlns:xlink="http://www.w3.org/1999/xlink" width="139.125" height="128"><defs><style type="text/css"></style></defs><path d="M509.07826063 32L34.5043475 244.20173937l497.02956562 207.15130407 484.50782625-204.64695657L509.03652219 32zM32 761.0156525l469.56521719 219.71478187V493.88521719L32 301.59304344v459.42260906z m147.33913031-297.05739188l187.32521719 87.40173938v67.40869594L179.33913031 531.32521719V464z m851.68695656 50.17043532a240.25043437 240.25043437 0 1 0-287.04 376.36173844l-182.48347781 90.23999999V493.88521719l469.52347781-202.22608688v222.46956563z m-176.55652125 384a221.00869594 221.00869594 0 1 1 0-442.01739188 221.00869594 221.00869594 0 0 1 0 442.01739188z m-0.08347875-53.551305a8.34782625 8.34782625 0 0 0 6.38608688-2.92173844l112.52869594-131.64521812a8.34782625 8.34782625 0 0 0-6.3443475-13.77391219H903.0956525v-169.25217469a16.6956525 16.6956525 0 0 0-16.6956525-16.69565156h-64.06956562a16.6956525 16.6956525 0 0 0-16.69565157 16.69565156v169.21043531h-63.81913031a8.34782625 8.34782625 0 0 0-6.34434844 13.77391313l112.52869594 131.68695656a8.34782625 8.34782625 0 0 0 6.3443475 2.92173844z" fill="#FC6F00" p-id="6298"></path></svg>