<?xml version="1.0" standalone="no"?><!DOCTYPE svg PUBLIC "-//W3C//DTD SVG 1.1//EN" "http://www.w3.org/Graphics/SVG/1.1/DTD/svg11.dtd"><svg t="1613399740495" class="icon" viewBox="0 0 1024 1024" version="1.1" xmlns="http://www.w3.org/2000/svg" p-id="4923" width="128" height="128" xmlns:xlink="http://www.w3.org/1999/xlink"><defs><style type="text/css"></style></defs><path d="M512 909.061224c-218.906122 0-397.061224-178.155102-397.061224-397.061224s178.155102-397.061224 397.061224-397.061224 397.061224 178.155102 397.061224 397.061224-178.155102 397.061224-397.061224 397.061224z" fill="#1296db" p-id="4924" data-spm-anchor-id="a313x.7781069.0.i16" class="selected"></path><path d="M660.897959 531.853061h-297.795918c-10.971429 0-19.853061-8.881633-19.853061-19.853061s8.881633-19.853061 19.853061-19.853061h297.795918c10.971429 0 19.853061 8.881633 19.853061 19.853061s-8.881633 19.853061-19.853061 19.853061z" fill="#DCFFFA" p-id="4925"></path><path d="M512 680.75102c-10.971429 0-19.853061-8.881633-19.853061-19.853061v-297.795918c0-10.971429 8.881633-19.853061 19.853061-19.853061s19.853061 8.881633 19.853061 19.853061v297.795918c0 10.971429-8.881633 19.853061-19.853061 19.853061z" fill="#DCFFFA" p-id="4926"></path></svg>