<?xml version="1.0" standalone="no"?><!DOCTYPE svg PUBLIC "-//W3C//DTD SVG 1.1//EN" "http://www.w3.org/Graphics/SVG/1.1/DTD/svg11.dtd"><svg t="1614182002058" class="icon" viewBox="0 0 1024 1024" version="1.1" xmlns="http://www.w3.org/2000/svg" p-id="5504" xmlns:xlink="http://www.w3.org/1999/xlink" width="128" height="128"><defs><style type="text/css"></style></defs><path d="M810.5 693.5c-73.5 0-133 59.5-133 133s59.6 133 133 133 133-59.6 133-133-59.5-133-133-133z m118.9 140.3c-1 2.3-2.4 4.5-4.1 6.2l-76 76c-3.7 3.7-8.6 5.6-13.4 5.6s-9.7-1.9-13.4-5.6c-7.4-7.4-7.4-19.4 0-26.9l43.6-43.6H721.9c-10.5 0-19-8.5-19-19s8.5-19 19-19H866L822.4 764c-7.4-7.4-7.4-19.4 0-26.9 7.4-7.4 19.4-7.4 26.9 0l76 76c1.8 1.8 3.2 3.9 4.1 6.2 0 0.1 0.1 0.2 0.1 0.3 0.8 2.2 1.3 4.5 1.3 6.9 0 2.4-0.5 4.8-1.3 6.9 0 0.2 0 0.3-0.1 0.4zM379.8 155.4h210.5c22.2 0 40.9-20.5 40.9-45.8s-18.7-45.7-42.1-45.7H379.8c-23.4 0-42 20.4-42 45.7s18.7 45.8 42 45.8z" fill="#3B7CED" p-id="5505"></path><path d="M819.7 657c24.5 0 47.8 5 69 14V218c0-62.1-34.1-105.1-105.3-105.1h-94.9c1 5 1.5 10 1.5 15.2 0 38.5-28.3 76.3-62.1 76.3H336.5c-35.5 0-63.9-37.9-63.9-76.3 0-5.1 0.6-10.2 1.6-15.2h-96C100.9 112.9 82 156 82 218v615c0 66.7 27.1 104 101.9 104h502.5c-25.1-29.6-40.3-67.7-40.3-109.3 0-94.3 77.8-170.7 173.6-170.7zM284.5 346.4h411.3c15.2 0 28 13.9 29.2 30 0 15-16 31.1-31.2 31.1H281.4c-15.2 0-24.9-16.1-24.9-31.1s12.8-30 28-30z m185.2 405.9H281.4c-15.2 0-24.9-16.1-24.9-31.1s12.8-29.9 28-29.9h187.2c15.2 0 28.1 13.9 29.2 29.9 0 15-16 31.1-31.2 31.1z m-190-169.7c-15.2 0-30.4-18.4-30.4-33.3 0-14.9 12.8-27.7 28-27.7h411.3c15.2 0 28 11.6 29.2 27.7 0 15-10.5 33.3-25.7 33.3H279.7z" fill="#3B7CED" p-id="5506"></path></svg>