<?xml version="1.0" standalone="no"?><!DOCTYPE svg PUBLIC "-//W3C//DTD SVG 1.1//EN" "http://www.w3.org/Graphics/SVG/1.1/DTD/svg11.dtd"><svg t="1614182475168" class="icon" viewBox="0 0 1024 1024" version="1.1" xmlns="http://www.w3.org/2000/svg" p-id="9937" xmlns:xlink="http://www.w3.org/1999/xlink" width="128" height="128"><defs><style type="text/css"></style></defs><path d="M511.488 600.8832c24.1664 0 47.7184-1.3312 70.3488-3.8912 43.4176-64.2048 116.9408-106.3936 200.2944-106.3936 12.1856 0 24.2688 0.9216 35.9424 2.6624 13.312-18.0224 20.5824-37.4784 20.5824-57.7536v-92.9792c0 91.3408-146.5344 148.0704-327.2704 148.0704-180.736 0-327.2704-56.832-327.2704-148.0704v92.9792c0.1024 91.3408 146.6368 165.376 327.3728 165.376z m0-165.2736c180.736 0 327.2704-74.0352 327.2704-165.376V215.1424c0-91.3408-146.5344-165.376-327.2704-165.376-180.736 0-327.2704 74.0352-327.2704 165.376v55.0912c0 91.3408 146.5344 165.376 327.2704 165.376z m0 330.6496c10.5472 0 20.8896-0.3072 31.232-0.7168-1.4336-10.752-2.2528-21.8112-2.2528-32.9728 0-27.136 4.5056-53.1456 12.6976-77.5168-13.6192 0.7168-27.5456 1.024-41.5744 1.024-180.736 0-327.2704-56.832-327.2704-148.0704v92.9792c-0.1024 91.2384 146.432 165.2736 327.168 165.2736z m442.368-509.8496l-14.6432 26.7264-26.9312 14.7456 26.9312 14.5408 14.6432 26.7264 14.7456-26.7264 26.9312-14.5408-26.9312-14.7456-14.7456-26.7264z m-10.0352-77.824l14.7456-26.7264 26.9312-14.7456-26.9312-14.5408-14.7456-26.7264-14.7456 26.7264-26.7264 14.5408 26.7264 14.7456 14.7456 26.7264zM556.8512 820.1216c-14.848 0.8192-29.9008 1.2288-45.3632 1.2288-180.736 0-327.2704-56.832-327.2704-148.0704v92.9792c0 91.3408 146.5344 165.376 327.2704 165.376 41.7792 0 81.8176-3.9936 118.5792-11.1616-32.3584-26.4192-57.856-60.8256-73.216-100.352z m225.3824-301.056c-117.8624 0-213.2992 95.5392-213.2992 213.2992s95.5392 213.2992 213.2992 213.2992c117.8624 0 213.2992-95.5392 213.2992-213.2992s-95.5392-213.2992-213.2992-213.2992zM736.256 846.2336L625.664 749.568l37.5808-39.5264 70.9632 80.896 189.952-143.9744 14.6432 13.824L736.256 846.2336zM41.6768 352.768l-14.7456 26.7264L0 394.24l26.9312 14.5408 14.7456 26.7264L56.32 408.7808l26.9312-14.5408L56.32 379.4944l-14.6432-26.7264zM76.1856 200.4992L61.44 227.2256 34.5088 241.9712 61.44 256.4096l14.7456 26.7264 14.7456-26.7264L117.76 241.9712 91.0336 227.2256 76.1856 200.4992z" fill="#d4237a" p-id="9938"></path></svg>