<?xml version="1.0" standalone="no"?><!DOCTYPE svg PUBLIC "-//W3C//DTD SVG 1.1//EN" "http://www.w3.org/Graphics/SVG/1.1/DTD/svg11.dtd"><svg t="1614182368203" class="icon" viewBox="0 0 1117 1024" version="1.1" xmlns="http://www.w3.org/2000/svg" p-id="7286" xmlns:xlink="http://www.w3.org/1999/xlink" width="139.625" height="128"><defs><style type="text/css"></style></defs><path d="M1117.085324 534.437357v-175.638395a104.773294 104.773294 0 0 0-104.866385-104.936202H104.656931c-56.59899 0-102.376215 44.846321-104.656931 100.956586v568.224068A104.773294 104.773294 0 0 0 104.656931 1024h907.771461A104.726749 104.726749 0 0 0 1117.085324 919.08707v-175.428941c-2.909076 0.209453-5.818153 0.395634-8.727229 0.395634h-209.523316a104.726749 104.726749 0 0 1-104.656932-104.91293 104.726749 104.726749 0 0 1 104.656932-104.91293h209.523316c2.909076-0.232726 5.818153 0 8.727229 0.209454z" fill="#77DFD6" p-id="7287"></path><path d="M1001.420447 76.758191C986.409613 21.695193 928.97281-11.258824 873.211634 3.542557L190.998318 184.394016a106.51874 106.51874 0 0 0-35.374369 16.895916h879.704693L1001.373902 76.804736z" fill="#B9FCED" p-id="7288"></path><path d="M861.086604 628.365615a46.545222 46.545222 0 0 0 46.545221 46.545221c25.716235 0 46.312496-20.828987 46.545222-46.545221a46.545222 46.545222 0 1 0-93.090443 0z" fill="#77DFD6" p-id="7289"></path></svg>