<?xml version="1.0" standalone="no"?><!DOCTYPE svg PUBLIC "-//W3C//DTD SVG 1.1//EN" "http://www.w3.org/Graphics/SVG/1.1/DTD/svg11.dtd"><svg t="1614182548767" class="icon" viewBox="0 0 1024 1024" version="1.1" xmlns="http://www.w3.org/2000/svg" p-id="10823" xmlns:xlink="http://www.w3.org/1999/xlink" width="128" height="128"><defs><style type="text/css"></style></defs><path d="M512 21.082353c-266.541176 0-481.882353 215.341176-481.882353 481.882353 0 123.482353 46.682353 236.423529 123.482353 320.752941 18.070588 21.082353-67.764706 147.576471-45.176471 161.129412 28.611765 15.058824 228.894118-31.623529 259.011765-22.588235 45.176471 15.058824 94.870588 22.588235 144.564706 22.588235 266.541176 0 481.882353-215.341176 481.882353-481.882353 0-265.035294-215.341176-481.882353-481.882353-481.882353zM225.882353 373.458824h421.647059c16.564706 0 30.117647 13.552941 30.117647 30.117647s-13.552941 30.117647-30.117647 30.117647H225.882353c-16.564706 0-30.117647-13.552941-30.117647-30.117647s13.552941-30.117647 30.117647-30.117647z m572.235294 268.047058H225.882353c-16.564706 0-30.117647-13.552941-30.117647-30.117647s13.552941-30.117647 30.117647-30.117647h572.235294c16.564706 0 30.117647 13.552941 30.117647 30.117647s-13.552941 30.117647-30.117647 30.117647z" fill="#00E510" p-id="10824"></path></svg>