<?xml version="1.0" standalone="no"?><!DOCTYPE svg PUBLIC "-//W3C//DTD SVG 1.1//EN" "http://www.w3.org/Graphics/SVG/1.1/DTD/svg11.dtd"><svg t="1614186867464" class="icon" viewBox="0 0 1237 1024" version="1.1" xmlns="http://www.w3.org/2000/svg" p-id="16432" xmlns:xlink="http://www.w3.org/1999/xlink" width="154.625" height="128"><defs><style type="text/css"></style></defs><path d="M85.333333 877.632V938.666667h1066.666667v-61.034667L712.362667 536.746667 618.666667 608.362667l-25.92-19.797334-67.776-51.818666L85.333333 877.653333z m0-107.989333l369.514667-286.506667L109.12 218.837333 85.333333 200.64v569.002667zM85.333333 93.226667l0.832 0.64L160.96 151.04 618.666667 500.970667 1076.373333 151.082667l68.053334-52.096c2.410667-1.834667 4.949333-3.392 7.573333-4.650667V85.333333H85.333333v7.893334z m1066.666667 107.434666l-23.786667 18.218667-345.728 264.277333L1152 769.642667V200.64zM0 0h1237.333333v1024H0V0z" fill="#1296db" p-id="16433"></path></svg>