<?xml version="1.0" standalone="no"?><!DOCTYPE svg PUBLIC "-//W3C//DTD SVG 1.1//EN" "http://www.w3.org/Graphics/SVG/1.1/DTD/svg11.dtd"><svg t="1614181949996" class="icon" viewBox="0 0 1024 1024" version="1.1" xmlns="http://www.w3.org/2000/svg" p-id="4216" xmlns:xlink="http://www.w3.org/1999/xlink" width="128" height="128"><defs><style type="text/css"></style></defs><path d="M998.4 134.4L889.6 25.6c-12.8-12.8-38.4-25.6-57.6-25.6-19.2 0-44.8 6.4-57.6 25.6L435.2 364.8c-6.4 6.4-12.8 12.8-12.8 19.2v185.6c0 12.8 12.8 25.6 32 25.6H640c6.4 0 12.8-6.4 19.2-6.4l339.2-339.2c19.2-12.8 25.6-32 25.6-51.2 0-25.6-6.4-44.8-25.6-64z" fill="#FFAC7B" p-id="4217"></path><path d="M646.4 659.2l-211.2 6.4c-38.4 0-70.4-32-70.4-70.4V384c0-19.2 6.4-38.4 19.2-51.2L716.8 0H32C12.8 0 0 12.8 0 32v960c0 19.2 12.8 32 32 32h857.6c19.2 0 32-12.8 32-32V403.2L691.2 640c-12.8 6.4-32 19.2-44.8 19.2z m89.6 140.8c0 19.2-12.8 32-32 32H249.6c-12.8 0-19.2-6.4-25.6-19.2-6.4-12.8-6.4-19.2 0-32 0-6.4 12.8-12.8 25.6-12.8H704c19.2 0 32 19.2 32 32z" fill="#FFAC7B" p-id="4218"></path></svg>