<?xml version="1.0" standalone="no"?><!DOCTYPE svg PUBLIC "-//W3C//DTD SVG 1.1//EN" "http://www.w3.org/Graphics/SVG/1.1/DTD/svg11.dtd"><svg t="1614185790094" class="icon" viewBox="0 0 1024 1024" version="1.1" xmlns="http://www.w3.org/2000/svg" p-id="13045" xmlns:xlink="http://www.w3.org/1999/xlink" width="128" height="128"><defs><style type="text/css"></style></defs><path d="M300.8 774.4c-6.4-12.8-19.2-19.2-38.4-19.2-108.8 25.6-179.2 64-179.2 115.2 0 89.6 192 140.8 428.8 140.8s428.8-51.2 428.8-140.8c0-57.6-76.8-96-192-121.6-19.2-6.4-38.4 6.4-38.4 25.6 0 19.2 6.4 32 25.6 38.4 89.6 19.2 140.8 44.8 140.8 57.6l-19.2 19.2c-19.2 12.8-44.8 19.2-76.8 32-70.4 19.2-166.4 32-268.8 32s-198.4-12.8-268.8-32c-32-6.4-57.6-19.2-76.8-32-12.8-6.4-19.2-12.8-19.2-19.2 0-12.8 51.2-38.4 128-57.6 32-6.4 32-25.6 25.6-38.4z" fill="#1296db" p-id="13046"></path><path d="M876.8 371.2C876.8 166.4 710.4 6.4 512 6.4S147.2 172.8 147.2 371.2c0 102.4 38.4 192 102.4 256L454.4 832c25.6 25.6 76.8 25.6 102.4 0L768 633.6c70.4-70.4 108.8-160 108.8-262.4z m-313.6 384c-51.2 51.2-51.2 51.2-102.4 0L294.4 588.8c-51.2-57.6-89.6-128-89.6-217.6C204.8 204.8 339.2 64 512 64c166.4 0 307.2 134.4 307.2 307.2 0 83.2-32 160-89.6 217.6l-166.4 166.4z" fill="#1296db" p-id="13047"></path><path d="M512 192C409.6 192 326.4 275.2 326.4 371.2c0 102.4 83.2 185.6 185.6 185.6s185.6-83.2 185.6-185.6C697.6 275.2 614.4 192 512 192z m0 307.2c-70.4 0-121.6-57.6-121.6-121.6C390.4 307.2 448 256 512 256s121.6 57.6 121.6 121.6S582.4 499.2 512 499.2z" fill="#1296db" p-id="13048"></path></svg>