<?xml version="1.0" standalone="no"?><!DOCTYPE svg PUBLIC "-//W3C//DTD SVG 1.1//EN" "http://www.w3.org/Graphics/SVG/1.1/DTD/svg11.dtd"><svg t="1614185759481" class="icon" viewBox="0 0 1024 1024" version="1.1" xmlns="http://www.w3.org/2000/svg" p-id="11580" xmlns:xlink="http://www.w3.org/1999/xlink" width="128" height="128"><defs><style type="text/css"></style></defs><path d="M512 113.664c44.544 10.752 190.464 49.152 343.04 104.448V533.504c0 3.072 4.608 258.56-343.04 376.832-344.576-116.736-343.04-366.08-343.04-376.832v-315.392c151.04-55.296 296.96-93.696 343.04-104.448m0-62.976h-6.144c-35.328 9.216-218.112 53.76-398.336 122.88v355.328s-10.752 312.32 404.48 444.416c416.768-130.56 404.48-444.416 404.48-444.416v-353.792c-181.248-69.12-364.544-115.2-399.872-122.88-1.536-1.536-3.072-1.536-4.608-1.536z" p-id="11581" fill="#1296db"></path><path d="M279.04 677.376l-6.144-49.664h15.872c8.192-1.536 13.824-2.048 17.92-2.048v-362.496h183.296v344.576l26.112-4.096v24.064c29.184-40.96 45.056-114.688 47.616-221.184 0-2.56 0.512-6.656 2.048-11.776v-9.728h-51.712v-49.664h51.712l2.048-95.744h51.712c-1.536 22.528-2.048 54.272-2.048 95.744h117.76c-2.56 151.552-5.12 251.904-8.192 301.056-1.536 42.496-22.528 64.512-64 65.536-10.752 1.536-33.28 2.048-67.584 2.048-2.56-15.872-6.144-32.768-9.728-49.664 20.992 1.536 39.936 2.048 55.808 2.048 22.528 0 34.304-11.264 35.84-33.792v-15.872c4.096-96.768 6.144-170.496 6.144-221.184h-67.584v11.776c-1.536 5.12-2.048 9.216-2.048 11.776 1.536 144.896-31.744 246.272-99.84 305.152-2.56-2.56-6.656-7.168-11.776-13.824-9.216-10.752-17.408-19.968-24.064-27.648l17.92-15.872c-57.344 1.536-129.536 8.704-217.088 20.48z m75.776-370.688v75.776h85.504v-75.776h-85.504z m0 117.76v73.728h85.504v-73.728h-85.504z m0 195.072h6.144c25.088-1.536 51.712-4.096 79.872-8.192v-71.68h-85.504V619.52z" p-id="11582" fill="#1296db"></path></svg>