<?xml version="1.0" standalone="no"?><!DOCTYPE svg PUBLIC "-//W3C//DTD SVG 1.1//EN" "http://www.w3.org/Graphics/SVG/1.1/DTD/svg11.dtd"><svg t="1613486666229" class="icon" viewBox="0 0 1024 1024" version="1.1" xmlns="http://www.w3.org/2000/svg" p-id="2604" xmlns:xlink="http://www.w3.org/1999/xlink" width="128" height="128"><defs><style type="text/css"></style></defs><path d="M595.634816 461.977723c47.168276 47.168276 47.168276 123.643018 0 170.811294-47.168276 47.168276-123.643018 47.168276-170.811294 0-47.168276-47.168276-47.168276-123.643018 0-170.811294C471.991798 414.809447 548.46654 414.809447 595.634816 461.977723" p-id="2605" fill="#1296db"></path><path d="M510.228657 736.105081c-105.683994 0-188.722222-83.037205-188.722222-188.721199s83.037205-188.721199 188.722222-188.721199 188.722222 83.037205 188.722222 188.721199S615.912651 736.105081 510.228657 736.105081zM396.995733 169.939437l-67.940368 75.489298-120.781854 0c-41.518602 0-75.488275 33.969673-75.488275 75.489298l0 452.931696c0 41.518602 33.969673 75.489298 75.488275 75.489298l603.90927 0c41.518602 0 75.489298-33.969673 75.489298-75.489298l0-452.931696c0-41.518602-33.969673-75.489298-75.489298-75.489298l-120.781854 0-67.940368-75.489298L396.995733 169.939437z" p-id="2606" fill="#1296db"></path></svg>