<?xml version="1.0" standalone="no"?><!DOCTYPE svg PUBLIC "-//W3C//DTD SVG 1.1//EN" "http://www.w3.org/Graphics/SVG/1.1/DTD/svg11.dtd"><svg t="1613476413790" class="icon" viewBox="0 0 1024 1024" version="1.1" xmlns="http://www.w3.org/2000/svg" p-id="1962" xmlns:xlink="http://www.w3.org/1999/xlink" width="128" height="128"><defs><style type="text/css"></style></defs><path d="M242.7 782.1c5.4 5.4 10.9 10.5 16.5 15.5 19.8-3.6 42.9-10.9 68.7-22.1-82.9-58.4-137.2-154.8-137.2-263.6 0-177.7 144.5-322.2 322.2-322.2 108.2 0 204 53.6 262.5 135.6 11-25.9 18-49.6 21-69.7-4.3-4.7-8.7-9.4-13.2-13.9-35.1-35.1-76-62.6-121.5-81.9-47.1-19.9-97.2-30-148.8-30-51.6 0-101.6 10.1-148.8 30-45.5 19.3-86.4 46.8-121.5 81.9-35.1 35.1-62.6 76-81.9 121.5-19.9 47.1-30 97.2-30 148.8 0 51.6 10.1 101.6 30 148.8 19.4 45.3 47 86.2 82 121.3zM867.5 405.5c-9.8 21.2-21.5 43-34.9 65.2 1.7 13.5 2.6 27.2 2.6 41.1C835.2 689.5 690.7 834 513 834c-13.6 0-26.9-0.9-40.1-2.5-23.2 14.1-46 26.4-68.1 36.7-4.6 2.1-9.1 4.1-13.6 6 39.1 13.1 80 19.8 121.8 19.8 51.6 0 101.6-10.1 148.8-30 45.5-19.3 86.4-46.8 121.5-81.9 35.1-35.1 62.6-76 81.9-121.5 19.9-47.1 30-97.2 30-148.8 0-42.3-6.8-83.7-20.3-123.2-2.3 5.6-4.8 11.2-7.4 16.9z" fill="#1296db" p-id="1963"></path><path d="M849.3 174.2c-15.2-15.2-43.8-32.6-93.5-29.2-24.7 1.7-52.4 8.3-82.5 19.7 25 11.5 48.5 25.7 70.3 42.2 9.1-1.6 17.5-2.4 25-2.4 17.3 0 30.3 4.1 38.3 12 20.6 20.6 14.4 74.8-16.4 141.4-36.4 78.7-101.7 167.3-183.9 249.5C460.1 754.1 323.2 819.8 254 819.8c-17.3 0-30.3-4.1-38.3-12-11.9-11.9-15.1-35.3-8.9-67.1-16.3-21.8-30.2-45.2-41.6-70.1-12.2 31.5-19.2 60.4-21 86.1-3.5 49.7 13.9 78.3 29.2 93.5 13.9 13.9 38.9 29.6 81 29.6 4 0 8.2-0.1 12.5-0.4 33.5-2.3 72.3-13.6 115.4-33.5C467.3 806.6 562 737 649.1 650S805.7 468.2 845 383.2c19.9-43.1 31.2-81.9 33.5-115.4 3.5-49.8-13.9-78.4-29.2-93.6z" fill="#1296db" p-id="1964"></path><path d="M491.022975 310.036021a30 30 0 1 0 42.425667-42.427147 30 30 0 1 0-42.425667 42.427147Z" fill="#1296db" p-id="1965"></path><path d="M267.537509 533.397692a30 30 0 1 0 42.425666-42.427148 30 30 0 1 0-42.425666 42.427148Z" fill="#1296db" p-id="1966"></path><path d="M477.9 477.3c-7.6 7.6-16.4 13.4-26.2 17.4-9.5 3.9-19.5 5.8-29.8 5.8s-20.3-2-29.8-5.8c-7.7-3.1-11.4-11.9-8.3-19.5 3.1-7.7 11.9-11.4 19.5-8.3 5.9 2.4 12.1 3.6 18.5 3.6s12.6-1.2 18.5-3.6c6.1-2.5 11.6-6.1 16.3-10.8 4.7-4.7 8.3-10.2 10.8-16.3 2.4-5.9 3.6-12.1 3.6-18.5s-1.2-12.6-3.6-18.5c-3.1-7.7 0.6-16.4 8.3-19.5 7.7-3.1 16.4 0.6 19.5 8.3 3.9 9.5 5.8 19.5 5.8 29.8s-2 20.3-5.8 29.8c-3.9 9.7-9.7 18.5-17.3 26.1z" fill="#1296db" p-id="1967"></path></svg>