<?xml version="1.0" standalone="no"?><!DOCTYPE svg PUBLIC "-//W3C//DTD SVG 1.1//EN" "http://www.w3.org/Graphics/SVG/1.1/DTD/svg11.dtd"><svg t="1614075086261" class="icon" viewBox="0 0 1024 1024" version="1.1" xmlns="http://www.w3.org/2000/svg" p-id="2102" width="128" height="128" xmlns:xlink="http://www.w3.org/1999/xlink"><defs><style type="text/css"></style></defs><path d="M767.989334 0c37.118453 0 64.935961 16.980626 77.394108 48.509979 6.101079 15.402025 7.76501 27.518853 7.978335 52.477813v12.372818a85.329778 85.329778 0 0 1-18.132578 52.477813l-219.724178 280.73497A85.329778 85.329778 0 0 0 597.329778 499.264531v442.050914l-0.08533 24.489646-0.511979 7.509021c-1.407941 13.396775-5.375776 24.190992-15.615349 34.47323-11.732844 11.732844-24.190992 15.231365-40.360985 16.084663l-2.218574 0.08533h-12.244823a85.329778 85.329778 0 0 1-51.325862-17.065955L332.807466 900.229157a85.329778 85.329778 0 0 1-34.131911-68.263822v-342.215075a85.329778 85.329778 0 0 0-18.985875-53.67243L61.672097 166.521062a85.329778 85.329778 0 0 1-19.02854-53.544436v-11.946169c0.213324-24.87363 1.877255-36.990459 7.978334-52.435148C63.080038 17.065956 90.854881 0 128.015999 0z m170.659556 810.63289a42.664889 42.664889 0 0 1 4.991792 85.031124L938.64889 895.962668h-213.324445a42.664889 42.664889 0 0 1-4.991792-85.031123L725.324445 810.63289h213.324445z m0-170.659556a42.664889 42.664889 0 0 1 4.991792 85.031124L938.64889 725.303112h-213.324445a42.664889 42.664889 0 0 1-4.991792-85.031123L725.324445 639.973334h213.324445z m0-170.659555a42.664889 42.664889 0 0 1 4.991792 85.031123L938.64889 554.643557h-213.324445a42.664889 42.664889 0 0 1-4.991792-85.031124L725.324445 469.313779h213.324445z" fill="#008df0" p-id="2103"></path></svg>